<?xml version="1.0" encoding="UTF-8"?>
<svg width="365px" height="198px" viewBox="0 0 365 198" version="1.1" xmlns="http://www.w3.org/2000/svg" xmlns:xlink="http://www.w3.org/1999/xlink" style="background: #004B5A;">
    <!-- Generator: Sketch 42 (36781) - http://www.bohemiancoding.com/sketch -->
    <title>Full size logo</title>
    <desc>Created with Sketch.</desc>
    <defs></defs>
    <g id="Page-1" stroke="none" stroke-width="1" fill="none" fill-rule="evenodd">
        <g id="Full-size-logo">
            <g id="VOTH" transform="translate(124.000000, 95.000000)" stroke="#FFFFFF">
                <path d="M118.657498,24.4580645 C118.657498,24.8193566 118.476855,25 118.115562,25 C117.75427,25 117.573627,24.8193566 117.573627,24.4580645 L117.573627,14.5483871 L104.722014,14.5483871 L104.722014,24.4580645 C104.722014,24.8193566 104.541371,25 104.180079,25 C103.818786,25 103.638143,24.8193566 103.638143,24.4580645 L103.638143,3.55483871 C103.638143,3.19354658 103.818786,3.01290323 104.180079,3.01290323 C104.541371,3.01290323 104.722014,3.19354658 104.722014,3.55483871 L104.722014,13.4645161 L117.573627,13.4645161 L117.573627,3.55483871 C117.573627,3.19354658 117.75427,3.01290323 118.115562,3.01290323 C118.476855,3.01290323 118.657498,3.19354658 118.657498,3.55483871 L118.657498,24.4580645 Z M124.990401,4.15870968 C124.990401,4.89161657 124.60847,5.25806452 123.844595,5.25806452 C123.08072,5.25806452 122.698788,4.89161657 122.698788,4.15870968 C122.698788,3.84903071 122.812336,3.5806463 123.039433,3.35354839 C123.266531,3.12645048 123.534916,3.01290323 123.844595,3.01290323 C124.154274,3.01290323 124.422658,3.12645048 124.649756,3.35354839 C124.876854,3.5806463 124.990401,3.84903071 124.990401,4.15870968 Z M124.38653,10.5225806 L124.38653,24.4580645 C124.38653,24.8193566 124.205887,25 123.844595,25 C123.483303,25 123.302659,24.8193566 123.302659,24.4580645 L123.302659,10.5225806 C123.302659,10.1612885 123.483303,9.98064516 123.844595,9.98064516 C124.205887,9.98064516 124.38653,10.1612885 124.38653,10.5225806 Z M132.82524,24.4580645 C132.82524,24.8193566 132.644597,25 132.283304,25 C131.178783,25 130.231695,24.6051652 129.442014,23.8154839 C128.652333,23.0258025 128.257498,22.0787152 128.257498,20.9741935 L128.257498,3.55483871 C128.257498,3.19354658 128.438141,3.01290323 128.799433,3.01290323 C129.160726,3.01290323 129.341369,3.19354658 129.341369,3.55483871 L129.341369,20.9741935 C129.341369,21.7793589 129.630398,22.4709649 130.208466,23.0490323 C130.786533,23.6270997 131.478139,23.916129 132.283304,23.916129 C132.644597,23.916129 132.82524,24.0967724 132.82524,24.4580645 Z M139.715562,24.4580645 C139.715562,24.8193566 139.534919,25 139.173627,25 C138.069105,25 137.122018,24.6051652 136.332337,23.8154839 C135.542655,23.0258025 135.147821,22.0787152 135.147821,20.9741935 L135.147821,3.55483871 C135.147821,3.19354658 135.328464,3.01290323 135.689756,3.01290323 C136.051048,3.01290323 136.231692,3.19354658 136.231692,3.55483871 L136.231692,20.9741935 C136.231692,21.7793589 136.520721,22.4709649 137.098788,23.0490323 C137.676856,23.6270997 138.368462,23.916129 139.173627,23.916129 C139.534919,23.916129 139.715562,24.0967724 139.715562,24.4580645 Z" id="Hill" fill="#FFFFFF"></path>
                <path d="M85.1612903,24.2258065 C85.1612903,24.2825809 85.1329035,24.3445158 85.076129,24.4116129 C84.7458048,24.8038729 84.2709708,25 83.6516129,25 C83.0993521,25 82.6258084,24.8025826 82.2309677,24.4077419 C81.8361271,24.0129013 81.6387097,23.5393576 81.6387097,22.9870968 L81.6387097,18.0322581 L80.1677419,18.0322581 C79.9870959,18.0322581 79.8967742,17.9419364 79.8967742,17.7612903 C79.8967742,17.5806443 79.9870959,17.4903226 80.1677419,17.4903226 L81.6387097,17.4903226 L81.6387097,14.2774194 C81.6387097,14.0967733 81.7290314,14.0064516 81.9096774,14.0064516 C82.0903235,14.0064516 82.1806452,14.0967733 82.1806452,14.2774194 L82.1806452,17.4903226 L83.6516129,17.4903226 C83.832259,17.4903226 83.9225806,17.5806443 83.9225806,17.7612903 C83.9225806,17.9419364 83.832259,18.0322581 83.6516129,18.0322581 L82.1806452,18.0322581 L82.1806452,22.9870968 C82.1806452,23.3896794 82.3251598,23.7354824 82.6141935,24.0245161 C82.9032273,24.3135498 83.2490302,24.4580645 83.6516129,24.4580645 C83.9096787,24.4580645 84.1767728,24.3729041 84.4529032,24.2025806 C84.7290336,24.0322572 84.872258,23.9470968 84.8825806,23.9470968 C85.068388,23.9470968 85.1612903,24.0399991 85.1612903,24.2258065 Z M91.8967742,24.7290323 C91.8967742,24.9096783 91.8064525,25 91.6258065,25 C91.4451604,25 91.3548387,24.9096783 91.3548387,24.7290323 L91.3548387,20.083871 C91.3548387,19.5212875 91.1535504,19.0387117 90.7509677,18.636129 C90.3483851,18.2335464 89.8658093,18.0322581 89.3032258,18.0322581 C88.7406423,18.0322581 88.2580665,18.2335464 87.8554839,18.636129 C87.4529012,19.0387117 87.2516129,19.5212875 87.2516129,20.083871 L87.2516129,24.7290323 C87.2516129,24.9096783 87.1612912,25 86.9806452,25 C86.7999991,25 86.7096774,24.9096783 86.7096774,24.7290323 L86.7096774,14.2774194 C86.7096774,14.0967733 86.7999991,14.0064516 86.9806452,14.0064516 C87.1612912,14.0064516 87.2516129,14.0967733 87.2516129,14.2774194 L87.2516129,18.4967742 C87.7729058,17.8258031 88.45677,17.4903226 89.3032258,17.4903226 C90.0154874,17.4903226 90.6258039,17.7445136 91.1341935,18.2529032 C91.6425832,18.7612929 91.8967742,19.3716093 91.8967742,20.083871 L91.8967742,24.7290323 Z M100.103226,22.9793548 C100.103226,23.0258067 100.090323,23.0748385 100.064516,23.1264516 C99.7341919,23.6993577 99.276132,24.154837 98.6903226,24.4929032 C98.1045132,24.8309694 97.478713,25 96.8129032,25 C95.7754787,25 94.8903262,24.6335521 94.1574194,23.9006452 C93.4245125,23.1677383 93.0580645,22.2825858 93.0580645,21.2451613 C93.0580645,20.2077367 93.4245125,19.3225843 94.1574194,18.5896774 C94.8903262,17.8567705 95.7754787,17.4903226 96.8129032,17.4903226 C97.2206472,17.4903226 97.6387075,17.5651605 98.0670968,17.7148387 C98.4645181,17.8593556 98.8774172,18.0941919 99.3058065,18.4193548 C99.8322607,18.8219375 100.095484,19.1858048 100.095484,19.5109677 C100.095484,19.6141941 100.051613,19.689032 99.963871,19.7354839 L94.1729032,23.08 C94.8129064,23.9987143 95.6928976,24.4580645 96.8129032,24.4580645 C97.7832307,24.4580645 98.580642,24.101939 99.2051613,23.3896774 C99.2929037,23.2709671 99.4219346,23.0903238 99.5922581,22.8477419 C99.6593552,22.7599996 99.7367738,22.716129 99.8245161,22.716129 C100.010324,22.716129 100.103226,22.8038701 100.103226,22.9793548 Z M99.4529032,19.4103226 C98.8129,18.4916083 97.9329088,18.0322581 96.8129032,18.0322581 C95.9251569,18.0322581 95.1677451,18.3458033 94.5406452,18.9729032 C93.9135453,19.6000031 93.6,20.3574149 93.6,21.2451613 C93.6,21.7251637 93.7006442,22.1819333 93.9019355,22.6154839 L99.4529032,19.4103226 Z" id="the" fill="#FFFFFF"></path>
                <path d="M87.1547058,8.24516129 C87.1547058,9.28258583 86.7882578,10.1677383 86.0553509,10.9006452 C85.322444,11.6335521 84.4372916,12 83.3998671,12 C82.3624425,12 81.4772901,11.6335521 80.7443832,10.9006452 C80.0114763,10.1677383 79.6450283,9.28258583 79.6450283,8.24516129 C79.6450283,7.20773675 80.0114763,6.32258431 80.7443832,5.58967742 C81.4772901,4.85677053 82.3624425,4.49032258 83.3998671,4.49032258 C84.4372916,4.49032258 85.322444,4.85677053 86.0553509,5.58967742 C86.7882578,6.32258431 87.1547058,7.20773675 87.1547058,8.24516129 Z M86.6127703,8.24516129 C86.6127703,7.35741492 86.299225,6.60000314 85.6721251,5.97290323 C85.0450252,5.34580332 84.2876134,5.03225806 83.3998671,5.03225806 C82.5121207,5.03225806 81.7547089,5.34580332 81.127609,5.97290323 C80.5005091,6.60000314 80.1869638,7.35741492 80.1869638,8.24516129 C80.1869638,9.13290766 80.5005091,9.89031945 81.127609,10.5174194 C81.7547089,11.1445193 82.5121207,11.4580645 83.3998671,11.4580645 C84.2876134,11.4580645 85.0450252,11.1445193 85.6721251,10.5174194 C86.299225,9.89031945 86.6127703,9.13290766 86.6127703,8.24516129 Z M93.1934154,1.7883871 C93.1934154,1.96903316 93.1005131,2.05935484 92.9147058,2.05935484 C92.9043831,2.05935484 92.7611588,1.9741944 92.4850283,1.80387097 C92.2088979,1.63354754 91.9418038,1.5483871 91.683738,1.5483871 C91.2811554,1.5483871 90.9353524,1.69290178 90.6463187,1.98193548 C90.357285,2.27096919 90.2127703,2.61677218 90.2127703,3.01935484 L90.2127703,4.49032258 L91.683738,4.49032258 C91.8643841,4.49032258 91.9547058,4.58064426 91.9547058,4.76129032 C91.9547058,4.94193639 91.8643841,5.03225806 91.683738,5.03225806 L90.2127703,5.03225806 L90.2127703,11.7290323 C90.2127703,11.9096783 90.1224486,12 89.9418025,12 C89.7611565,12 89.6708348,11.9096783 89.6708348,11.7290323 L89.6708348,5.03225806 L88.1998671,5.03225806 C88.019221,5.03225806 87.9288993,4.94193639 87.9288993,4.76129032 C87.9288993,4.58064426 88.019221,4.49032258 88.1998671,4.49032258 L89.6708348,4.49032258 L89.6708348,3.01935484 C89.6708348,2.46709401 89.8682522,1.99355036 90.2630929,1.59870968 C90.6579335,1.20386899 91.1314772,1.00645161 91.683738,1.00645161 C92.303096,1.00645161 92.7779299,1.20257868 93.1082541,1.59483871 C93.1650286,1.66193582 93.1934154,1.7264513 93.1934154,1.7883871 Z" id="of" fill="#FFFFFF"></path>
                <path d="M77.5,3.5 L77.5,24.519992" id="Line" stroke-linecap="round" stroke-linejoin="round"></path>
                <path d="M22.3533476,1.15950416 C22.3533476,1.28337574 20.7430411,4.58656852 17.5223798,11.0691816 C14.3120412,17.5105041 12.4333503,21.2317572 11.8862508,22.2330525 C11.7417339,22.4911184 11.5662518,22.6201493 11.3597992,22.6201493 C11.1430239,22.6201493 10.9623805,22.4911184 10.8178637,22.2330525 C10.2707642,21.2317572 8.39207329,17.5105041 5.18173466,11.0691816 C1.96107339,4.58656852 0.350766915,1.28337574 0.350766915,1.15950416 C0.350766915,0.80853466 0.541732747,0.633052544 0.92367014,0.633052544 C1.13012279,0.633052544 1.28495995,0.731116079 1.38818627,0.927246092 L11.3597992,20.8704719 L21.3159282,0.927246092 C21.4191545,0.731116079 21.5739917,0.633052544 21.7804443,0.633052544 C22.1623817,0.633052544 22.3533476,0.80853466 22.3533476,1.15950416 Z M26.3636701,1.778859 C26.3636701,2.51176589 25.9817385,2.87821383 25.2178637,2.87821383 C24.4539889,2.87821383 24.0720572,2.51176589 24.0720572,1.778859 C24.0720572,1.46918003 24.1856045,1.20079561 24.4127024,0.973697705 C24.6398003,0.746599795 24.9081847,0.633052544 25.2178637,0.633052544 C25.5275427,0.633052544 25.7959271,0.746599795 26.023025,0.973697705 C26.2501229,1.20079561 26.3636701,1.46918003 26.3636701,1.778859 Z M25.7597992,8.14272996 L25.7597992,22.0782138 C25.7597992,22.439506 25.5791558,22.6201493 25.2178637,22.6201493 C24.8565716,22.6201493 24.6759282,22.439506 24.6759282,22.0782138 L24.6759282,8.14272996 C24.6759282,7.78143783 24.8565716,7.60079448 25.2178637,7.60079448 C25.5791558,7.60079448 25.7597992,7.78143783 25.7597992,8.14272996 Z M39.5559282,22.0782138 C39.5559282,22.4498286 39.3701236,22.6356332 38.9985088,22.6356332 C38.853992,22.6356332 38.724961,22.5788596 38.6114121,22.4653106 L31.6436701,15.4975687 C31.5301212,15.3840197 31.4733476,15.2653112 31.4733476,15.1414396 C31.4733476,14.9762775 31.5301212,14.8369241 31.6436701,14.7233751 L38.6114121,7.75563319 C38.724961,7.64208423 38.853992,7.58531061 38.9985088,7.58531061 C39.3701236,7.58531061 39.5559282,7.7711152 39.5559282,8.14272996 C39.5559282,8.28724681 39.4991546,8.41627778 39.3856056,8.52982674 L32.7894766,15.1104719 L39.3856056,21.6911171 C39.4991546,21.804666 39.5559282,21.933697 39.5559282,22.0782138 Z M31.4888314,1.17498803 L31.4888314,22.0782138 C31.4888314,22.439506 31.3081881,22.6201493 30.9468959,22.6201493 C30.5856038,22.6201493 30.4049605,22.439506 30.4049605,22.0782138 L30.4049605,1.17498803 C30.4049605,0.813695899 30.5856038,0.633052544 30.9468959,0.633052544 C31.3081881,0.633052544 31.4888314,0.813695899 31.4888314,1.17498803 Z M44.3404443,1.778859 C44.3404443,2.51176589 43.9585127,2.87821383 43.1946379,2.87821383 C42.4307631,2.87821383 42.0488314,2.51176589 42.0488314,1.778859 C42.0488314,1.46918003 42.1623787,1.20079561 42.3894766,0.973697705 C42.6165745,0.746599795 42.8849589,0.633052544 43.1946379,0.633052544 C43.5043168,0.633052544 43.7727013,0.746599795 43.9997992,0.973697705 C44.2268971,1.20079561 44.3404443,1.46918003 44.3404443,1.778859 Z M43.7365734,8.14272996 L43.7365734,22.0782138 C43.7365734,22.439506 43.55593,22.6201493 43.1946379,22.6201493 C42.8333458,22.6201493 42.6527024,22.439506 42.6527024,22.0782138 L42.6527024,8.14272996 C42.6527024,7.78143783 42.8333458,7.60079448 43.1946379,7.60079448 C43.55593,7.60079448 43.7365734,7.78143783 43.7365734,8.14272996 Z M58.7559282,22.0782138 C58.7559282,22.439506 58.5752848,22.6201493 58.2139927,22.6201493 C57.8527006,22.6201493 57.6720572,22.439506 57.6720572,22.0782138 L57.6720572,12.7878913 C57.6720572,11.6627243 57.2694806,10.6975727 56.4643153,9.89240738 C55.65915,9.08724207 54.6939983,8.68466545 53.5688314,8.68466545 C52.4436645,8.68466545 51.4785129,9.08724207 50.6733476,9.89240738 C49.8681822,10.6975727 49.4656056,11.6627243 49.4656056,12.7878913 L49.4656056,22.0782138 C49.4656056,22.439506 49.2849623,22.6201493 48.9236701,22.6201493 C48.562378,22.6201493 48.3817347,22.439506 48.3817347,22.0782138 L48.3817347,8.14272996 C48.3817347,7.78143783 48.562378,7.60079448 48.9236701,7.60079448 C49.2849623,7.60079448 49.4656056,7.78143783 49.4656056,8.14272996 L49.4656056,9.61369771 C50.5081915,8.27175551 51.8759197,7.60079448 53.5688314,7.60079448 C54.9933547,7.60079448 56.2139876,8.10917649 57.2307669,9.12595577 C58.2475462,10.142735 58.7559282,11.363368 58.7559282,12.7878913 L58.7559282,22.0782138 Z M73.775283,8.14272996 C73.775283,8.50402209 73.5946397,8.68466545 73.2333476,8.68466545 L70.6010895,8.68466545 C71.9430317,9.72725131 72.6139927,11.0949796 72.6139927,12.7878913 C72.6139927,14.8627403 71.6952922,16.390467 69.8578637,17.3711171 C71.0346438,17.8666034 71.9817311,18.6485311 72.699154,19.7169235 C73.416577,20.785316 73.775283,21.9594978 73.775283,23.2395042 C73.775283,24.9943516 73.1559344,26.4911109 71.9172185,27.7298267 C70.6785027,28.9685426 69.1817434,29.5878913 67.4268959,29.5878913 C65.6720485,29.5878913 64.1752892,28.9685426 62.9365734,27.7298267 C61.6978575,26.4911109 61.0785088,24.9943516 61.0785088,23.2395042 C61.0785088,22.878212 61.2591522,22.6975687 61.6204443,22.6975687 C61.9817365,22.6975687 62.1623798,22.878212 62.1623798,23.2395042 C62.1623798,24.6846727 62.6785037,25.92337 63.7107669,26.9556332 C64.7430301,27.9878964 65.9817274,28.5040203 67.4268959,28.5040203 C68.8720645,28.5040203 70.1107618,27.9878964 71.143025,26.9556332 C72.1752882,25.92337 72.6914121,24.6846727 72.6914121,23.2395042 C72.6914121,21.7943356 72.1752882,20.5556384 71.143025,19.5233751 C70.1107618,18.4911119 68.8772257,17.974988 67.4423798,17.974988 C66.0075339,17.974988 64.7817397,17.466606 63.7649605,16.4498267 C62.7481812,15.4330475 62.2397992,14.2124145 62.2397992,12.7878913 C62.2397992,11.363368 62.7481812,10.142735 63.7649605,9.12595577 C64.7817397,8.10917649 66.0023727,7.60079448 67.4268959,7.60079448 L73.2333476,7.60079448 C73.5946397,7.60079448 73.775283,7.78143783 73.775283,8.14272996 Z M71.5301218,12.7878913 C71.5301218,11.6627243 71.1275451,10.6975727 70.3223798,9.89240738 C69.5172145,9.08724207 68.5520629,8.68466545 67.4268959,8.68466545 C66.301729,8.68466545 65.3365774,9.08724207 64.5314121,9.89240738 C63.7262468,10.6975727 63.3236701,11.6627243 63.3236701,12.7878913 C63.3236701,13.9130582 63.7262468,14.8782098 64.5314121,15.6833751 C65.3365774,16.4885404 66.301729,16.8911171 67.4268959,16.8911171 C68.5520629,16.8911171 69.5172145,16.4885404 70.3223798,15.6833751 C71.1275451,14.8782098 71.5301218,13.9130582 71.5301218,12.7878913 Z" id="Viking" fill="#FFFFFF"></path>
            </g>
            <g id="Mountain" transform="translate(226.000000, 76.000000)">
                <polygon id="Path-7" stroke="#004C59" fill="#004C59" points="0.164210668 123.273689 61.4396577 0.848826521 122.715105 121.973654"></polygon>
                <polyline id="Path-2" stroke="#FFFFFF" stroke-linecap="round" stroke-linejoin="round" points="0 123.283961 61.5062566 0 122.714017 122.153897"></polyline>
                <polygon id="Path-11-Copy" stroke="#FFFFFF" stroke-linecap="round" stroke-linejoin="round" fill="#FFFFFF" transform="translate(61.084309, 24.352604) scale(-1, 1) translate(-61.084309, -24.352604) " points="60.6102909 0.585805361 84.1114324 48.119403 70.8697731 40.7524813 65.4212657 45.6420311 54.6845481 32.1818559 38.057186 45.6420311"></polygon>
            </g>
            <g id="Mountain-Copy" transform="translate(162.000000, 151.000000)">
                <polygon id="Path-7" stroke="#004C59" fill="#004C59" points="0.0620499751 46.7247048 23.2160874 0.321732633 46.3701249 46.2319496"></polygon>
                <polyline id="Path-2" stroke="#FFFFFF" stroke-linecap="round" stroke-linejoin="round" points="0 46.7285982 23.2412531 0 46.3697139 46.3002675"></polyline>
                <polygon id="Path-11-Copy" stroke="#FFFFFF" stroke-linecap="round" stroke-linejoin="round" fill="#FFFFFF" transform="translate(23.081813, 9.230423) scale(-1, 1) translate(-23.081813, -9.230423) " points="22.9026962 0.222039129 31.7830281 18.238806 26.7794273 15.446505 24.7206102 17.2998021 20.6635469 12.1979615 14.380597 17.2998021"></polygon>
            </g>
            <g id="Mountain-Copy-2" transform="translate(236.500000, 163.500000) scale(-1, 1) translate(-236.500000, -163.500000) translate(201.000000, 128.000000)">
                <polygon id="Path-7" stroke="#004C59" fill="#004C59" points="0.0937350688 70.5841285 35.0711108 0.486021637 70.0484866 69.8397537"></polygon>
                <polyline id="Path-2" stroke="#FFFFFF" stroke-linecap="round" stroke-linejoin="round" points="0 70.5900101 35.109127 0 70.0478657 69.9429573"></polyline>
                <polygon id="Path-11-Copy" stroke="#FFFFFF" stroke-linecap="round" stroke-linejoin="round" fill="#FFFFFF" transform="translate(34.868270, 13.943830) scale(-1, 1) translate(-34.868270, -13.943830) " points="34.59769 0.335420812 48.0126595 27.5522388 40.4540285 23.334082 37.3439004 26.1337436 31.2151454 18.4267078 21.7238806 26.1337436"></polygon>
            </g>
            <g id="Mountain" transform="translate(80.000000, 106.500000) scale(-1, 1) translate(-80.000000, -106.500000) translate(-11.000000, 15.000000)">
                <polygon id="Path-7" stroke="#004C59" fill="#004C59" points="0.243326156 182.967695 91.0408313 1.25986196 181.838337 181.038132"></polygon>
                <polyline id="Path-2" stroke="#FFFFFF" stroke-linecap="round" stroke-linejoin="round" points="0 182.982941 91.1395172 0 181.836725 181.305655"></polyline>
                <polygon id="Path-11-Copy" stroke="#FFFFFF" stroke-linecap="round" stroke-linejoin="round" fill="#FFFFFF" transform="translate(90.514279, 36.145100) scale(-1, 1) translate(-90.514279, -36.145100) " points="89.8118817 0.869475534 124.6357 71.4207249 105.014307 60.4864479 96.9407488 67.7437114 81.0311598 47.7655859 56.3928574 67.7437114"></polygon>
            </g>
        </g>
    </g>
</svg>